<svg version="1.2" xmlns="http://www.w3.org/2000/svg" viewBox="0 0 412 300" width="412" height="300">
	<style>
		.s0 { fill: #ffffffff } 
	</style>
	<g id="Background">
		<path id="Path 1" class="s0" d="m143.52 86.99l-63.02 63c72.07 72.08 93.34 93.01 93.75 93.01 0.41 0 1.16-1.46 1.67-3.25 0.5-1.79 1.42-4.6 2.02-6.25 0.61-1.65 4.26-12.45 8.12-24 3.85-11.55 7.78-22.53 8.72-24.39 1.5-2.95 4.59-4.87 23.72-14.7 12.1-6.21 23.37-12.56 25.05-14.11 2.37-2.18 3.89-5.46 6.83-14.8 2.08-6.6 3.52-12.11 3.2-12.25-0.32-0.14-6.77 2.84-14.33 6.63-7.56 3.78-17.57 8.97-22.25 11.53-4.68 2.56-8.61 4.64-8.75 4.62-0.14-0.02-0.25-1.04-0.26-2.28 0-1.24 1.46-6.38 3.25-11.43 1.79-5.05 2.92-9.43 2.51-9.75-0.41-0.31-4.46 1.83-9 4.76-4.54 2.93-9.71 6.08-11.5 7-1.79 0.92-3.25 1.22-3.25 0.67 0-0.55 0.7-2.69 1.56-4.75 0.85-2.06 2.54-4.8 3.75-6.09 1.2-1.29 6.92-5.82 12.69-10.08 5.77-4.25 15.34-10.95 21.25-14.9 5.91-3.95 10.98-7.18 11.25-7.18 0.27 0 0.11 0.79-0.36 1.75-0.47 0.96-2.51 6.7-4.54 12.75-2.03 6.05-3.56 11.11-3.39 11.25 0.16 0.13 6.14-4.17 13.29-9.56 7.15-5.39 16.15-12.19 20-15.1 3.85-2.92 8.01-6.27 9.25-7.45 1.23-1.18 2.58-1.8 3-1.37 0.41 0.42-0.49 3.79-2.02 7.5-1.52 3.7-5.17 13.25-8.12 21.23-2.95 7.98-5.21 14.73-5.01 15 0.19 0.27 1.37-0.23 2.62-1.12 1.26-0.89 7.45-6.43 13.78-12.3 6.33-5.86 16.97-15.71 23.67-21.87 6.69-6.17 12.18-11.66 12.21-12.21 0.03-0.61-1.8-0.45-4.67 0.4-2.59 0.77-6.73 2.12-9.21 3-2.47 0.88-4.83 1.71-5.25 1.85-0.41 0.14-0.75-0.43-0.75-1.25 0-0.82 0.85-2.74 1.89-4.25 1.04-1.51 5.93-9.5 10.87-17.75 4.94-8.25 11.29-19.16 14.11-24.25 2.82-5.09 5.15-10.04 5.18-11 0.04-1.58-0.15-1.61-1.91-0.25-1.07 0.82-6.15 4.48-11.29 8.13-5.14 3.64-18.12 13.2-28.85 21.23-10.73 8.03-19.84 14.39-20.25 14.12-0.41-0.26-0.12-1.72 0.64-3.23 0.76-1.51 2.79-7.14 4.5-12.5 1.71-5.36 3-9.98 2.86-10.26-0.14-0.29-4.52 2.55-9.75 6.3-5.23 3.75-12.65 9.02-16.5 11.71-3.85 2.7-11.95 8.26-18 12.36-6.05 4.11-16.4 11.3-23 15.98-6.6 4.68-16.05 11.5-21 15.14l-9 6.62c-5.75 15.42-9.26 25.08-11.52 31.4-2.26 6.32-5.54 15.65-7.29 20.72-1.76 5.07-2.85 9.46-2.44 9.75 0.41 0.29 5.7-1.95 11.75-4.97 6.05-3.02 11.23-5.5 11.5-5.5 0.27 0-0.81 3.04-2.4 6.75-1.6 3.71-4.3 11.36-6 17l-3.1 10.25c-3.49-2.71-15.75-14.85-29.5-28.72l-25-25.23c25.59-25.23 46.9-46.61 63.86-63.8 16.97-17.19 31.14-31.25 31.49-31.26 0.36 0 4.25 3.63 8.65 8.07 4.4 4.44 8.79 8.5 9.75 9.01 1.36 0.72 3.02-0.1 7.5-3.73 3.16-2.56 6.76-5.26 8-6 1.24-0.73 2.25-1.9 2.25-2.59 0.01-0.69-7.76-9.01-17.25-18.5-9.49-9.48-17.69-17.24-18.23-17.25-0.54 0-29.34 28.35-64 62.99zm146.98 33.67c-3.3 3.55-6.39 7.21-6.86 8.15-0.67 1.33 1.22 3.73 9 11.4l9.86 9.72c-72.85 73.29-94.45 94.73-95 94.92-0.55 0.19-4.92-3.63-9.72-8.5-4.79-4.87-8.95-8.62-9.24-8.35-0.28 0.27-1.79 4.1-3.34 8.5-1.55 4.4-3.12 9.35-3.48 11-0.61 2.8 0.17 3.83 12.06 15.72 7 7 13.17 12.75 13.72 12.78 0.55 0.04 25.07-24.37 54.5-54.23 29.42-29.87 57.1-58.02 61.5-62.57 4.4-4.55 8.11-8.82 8.24-9.49 0.14-0.66-7.29-8.96-16.5-18.43-9.21-9.47-17.19-17.19-17.74-17.15-0.55 0.04-3.7 2.98-7 6.53z"/>
	</g>
</svg>